<svg xmlns="http://www.w3.org/2000/svg" width="208" height="46" fill="none" viewBox="0 0 208 46"><g fill="#fff" clip-path="url(#clip0_1193_1325)"><path d="M35.452 17.345v-14.8a.48.48 0 0 0-.444-.474 44.741 44.741 0 0 1-4.343-.562C26.47.799 25.672.177 17.961-.001c-7.268.178-8.775.77-13.178 1.51-1.477.236-2.925.444-4.343.562-.236.03-.443.237-.443.474v14.8c.03 3.138.68 6.246 1.98 9.117 1.95 4.381 6.234 10.065 15.659 12.107.059.03.147.03.207 0 18.022-3.966 17.609-21.076 17.609-21.224Zm-14.625 8.762a.363.363 0 0 1-.296.148l-2.6-.385-2.6.385a.391.391 0 0 1-.384-.385.41.41 0 0 1 .177-.325l2.6-1.836c.119-.088.296-.088.444 0l2.6 1.836a.448.448 0 0 1 .059.562Zm4.697-9.857-2.984 2.575a1.91 1.91 0 0 0-.236.267.908.908 0 0 0-.089.68l.266 1.096.65 2.723c.06.267.03.533-.118.74-.266.444-.857.563-1.3.296l-3.339-2.042a.959.959 0 0 0-.975 0l-3.338 2.042a.863.863 0 0 1-.71.119c-.502-.119-.827-.622-.679-1.125l.089-.415.827-3.404c.089-.355-.06-.71-.325-.947l-.089-.06-2.866-2.456a1.03 1.03 0 0 1-.354-.651c0-.178.03-.385.118-.533.148-.267.443-.474.768-.503l3.87-.356c.355-.03.65-.266.828-.592l1.507-3.64a.845.845 0 0 1 .502-.504.938.938 0 0 1 .798.03.87.87 0 0 1 .443.473l.414.977 1.122 2.664c.148.326.443.563.798.592l3.9.326c.177.03.355.089.502.207.06.03.089.089.148.118.296.356.236.977-.148 1.303Z"/><path d="m13.53 19.802-.828 3.404.414-4.44.088.059c.266.237.384.621.325.977ZM18.286 9.53a.938.938 0 0 0-.798-.03.845.845 0 0 0-.502.504l-1.507 3.64a.983.983 0 0 1-.827.593l-3.87.355c-.326.03-.621.237-.769.503a.269.269 0 0 1-.088-.207.508.508 0 0 1 .354-.592l4.61-1.036 2.392-4.055c.03-.06.089-.09.119-.119a.546.546 0 0 1 .709.119l.177.325ZM22.452 20.897l-.266-1.095c-.06-.237 0-.474.088-.68l.178 1.775ZM25.465 14.77a1.071 1.071 0 0 0-.502-.207l-3.9-.325a.94.94 0 0 1-.798-.592l-1.122-2.665 1.359 2.31 4.609 1.035c.088.03.148.06.207.119.118.089.147.207.147.325ZM11.52 40.996h12.113a5.023 5.023 0 0 1 5.023 5.032H6.497a5.023 5.023 0 0 1 5.023-5.032ZM55.07 33.418c.413.148.62.355.62.592-.03.148-.059.296-.118.444l-1.773 5.092c-.03.059-.03.118-.059.148a.9.9 0 0 1-.236.236.892.892 0 0 1-.473.148.892.892 0 0 1-.473-.148.84.84 0 0 1-.266-.296l-1.063-3.167c-.68 2.013-1.034 3.02-1.034 3.079a.647.647 0 0 1-.089.148c-.03.059-.089.118-.148.177-.118.148-.325.207-.502.207s-.355-.03-.473-.148c-.118-.059-.177-.177-.266-.266l-.059-.148-1.773-5.091a1.19 1.19 0 0 1-.088-.444c0-.237.207-.444.62-.593.148-.059.325-.088.473-.088.118 0 .236.059.325.148.089.148.177.296.207.444l1.004 3.078 1.005-3.019a.776.776 0 0 1 .473-.533c.118-.06.236-.06.384-.06.148 0 .325.06.443.149a.84.84 0 0 1 .266.296L53.06 37l1.005-3.079c.06-.148.089-.236.118-.325a.398.398 0 0 1 .178-.207.57.57 0 0 1 .295-.09c.148.03.295.06.414.12Zm2.245.77v-.326c0-.089.03-.177.089-.237.088-.177.325-.236.709-.236.413 0 .68.118.768.325.03.148.06.326.06.474v5.417c-.03.089-.06.177-.09.237-.088.177-.325.236-.709.236-.413 0-.68-.118-.738-.355a2.3 2.3 0 0 1-.06-.473l-.029-5.062Zm7.83-.533a.376.376 0 0 1 .266-.207c.147-.03.295-.06.443-.06.147 0 .295 0 .413.06.089.03.178.059.237.118.059.06.088.119.118.207.03.148.059.296.059.474v5.417c-.03.089-.06.178-.089.237-.088.177-.325.237-.709.237-.177 0-.325 0-.502-.06a.46.46 0 0 1-.236-.177c-1.36-1.836-2.275-3.05-2.719-3.612v3.345c-.03.09-.059.178-.088.237-.089.178-.325.237-.71.237-.383 0-.62-.089-.708-.237-.03-.089-.06-.148-.089-.237 0-.118-.03-.207 0-.325v-5.121c0-.178.03-.355.089-.503a.376.376 0 0 1 .265-.208c.148-.03.296-.059.444-.059.147 0 .295 0 .443.06.088.029.148.058.236.118.089.089.148.148.207.237 1.3 1.746 2.157 2.9 2.57 3.463v-3.108a.651.651 0 0 1 .06-.533Zm4.195-.296h1.684c.886 0 1.714.355 2.334.947a3.071 3.071 0 0 1 1.005 2.368c0 .888-.355 1.776-.975 2.398a3.277 3.277 0 0 1-2.393 1.006H69.31c-.385 0-.591-.088-.71-.236a1.328 1.328 0 0 1-.118-.592v-5.417c.03-.09.06-.178.089-.237.148-.148.384-.237.768-.237Zm1.684 5.091c.443 0 .886-.177 1.182-.503.355-.326.532-.77.532-1.243 0-.474-.177-.918-.532-1.243a1.722 1.722 0 0 0-1.211-.504h-.887v3.464h.916v.03Zm8.214-5.15c.886 0 1.743.355 2.363.977.65.65 1.034 1.51 1.005 2.427.03.917-.325 1.806-.945 2.486a3.174 3.174 0 0 1-2.335 1.036 3.26 3.26 0 0 1-2.363-1.006 3.36 3.36 0 0 1-.975-2.398c0-.503.088-.977.266-1.42.177-.415.413-.8.738-1.125.296-.296.65-.533 1.064-.71.355-.208.768-.267 1.182-.267Zm-1.655 3.434c-.03.503.177.976.532 1.331.296.326.739.504 1.182.504.443 0 .857-.178 1.182-.504.354-.355.531-.828.531-1.331.03-.504-.177-.977-.531-1.333a1.606 1.606 0 0 0-1.182-.503c-.443 0-.857.178-1.182.503-.355.356-.561.859-.532 1.332Zm14.773-3.316c.414.148.62.355.62.592-.03.148-.059.296-.118.444l-1.773 5.092c-.029.059-.029.118-.059.148a.9.9 0 0 1-.236.236.892.892 0 0 1-.473.148.892.892 0 0 1-.472-.148.839.839 0 0 1-.266-.296l-1.064-3.167c-.68 2.013-1.034 3.02-1.034 3.079-.03.059-.06.118-.089.148a.783.783 0 0 1-.147.177c-.119.148-.325.207-.503.207-.177 0-.354-.03-.472-.148-.119-.059-.178-.177-.266-.266l-.06-.148-1.772-5.091a1.19 1.19 0 0 1-.089-.444c0-.237.207-.444.62-.593.148-.059.326-.088.473-.088.119 0 .237.059.325.148.09.148.178.296.207.444l1.005 3.078 1.004-3.019a.776.776 0 0 1 .473-.533c.118-.06.236-.06.384-.06.148 0 .325.06.443.149.118.06.207.178.266.296L90.347 37l1.004-3.079c.06-.148.09-.236.119-.325a.397.397 0 0 1 .177-.207.57.57 0 0 1 .295-.09c.119.03.266.06.414.12Zm6.116-.06h5.082c.147 0 .295.03.443.06.089.03.148.119.177.207.03.119.059.267.059.385 0 .119 0 .267-.059.385a.517.517 0 0 1-.148.207c-.147.06-.295.089-.472.089h-1.743V39.634c0 .09-.03.148-.089.237a.46.46 0 0 1-.236.178 2.3 2.3 0 0 1-.473.059c-.148 0-.296 0-.443-.06a.46.46 0 0 1-.237-.177c-.029-.089-.059-.148-.088-.237 0-.118-.03-.207 0-.325V34.69h-1.773c-.148 0-.296-.03-.443-.06-.089-.029-.148-.118-.178-.206a1.738 1.738 0 0 1-.059-.385c0-.119 0-.267.06-.385.029-.089.088-.148.147-.207.177-.06.325-.09.473-.09Zm9.986-.058c.887 0 1.743.355 2.364.977.65.65 1.034 1.51 1.004 2.427.03.917-.325 1.806-.945 2.486a3.174 3.174 0 0 1-2.334 1.036 3.262 3.262 0 0 1-2.364-1.006 3.49 3.49 0 0 1-.975-2.398c0-.503.089-.977.266-1.42.177-.415.414-.8.739-1.125.295-.296.65-.533 1.063-.71.355-.208.769-.267 1.182-.267Zm-1.654 3.434c-.03.503.177.976.532 1.331.295.326.738.504 1.181.504.444 0 .857-.178 1.182-.504.355-.355.532-.828.532-1.331.03-.504-.177-.977-.532-1.333a1.604 1.604 0 0 0-1.182-.503c-.443 0-.856.178-1.181.503-.355.356-.562.859-.532 1.332Zm14.507-3.079a.375.375 0 0 1 .265-.207c.148-.03.296-.06.444-.06.147 0 .295 0 .413.06.089.03.178.059.237.118.059.06.088.119.118.207.029.148.059.296.059.474v5.417c-.03.089-.059.178-.089.237-.088.177-.325.237-.709.237-.177 0-.325 0-.502-.06a.457.457 0 0 1-.236-.177c-1.389-1.836-2.275-3.05-2.719-3.612v3.345a2.051 2.051 0 0 1-.088.237c-.089.178-.325.237-.709.237-.384 0-.621-.089-.709-.237-.03-.089-.06-.148-.089-.237 0-.118-.03-.207 0-.325v-5.121c0-.178.029-.355.089-.503a.375.375 0 0 1 .265-.208c.148-.03.296-.059.444-.059.147 0 .295 0 .443.06.088.029.148.058.236.118.089.089.148.148.207.237 1.3 1.746 2.157 2.9 2.57 3.463v-3.108c-.029-.207 0-.385.06-.533Zm5.022 4.825h3.132c.089 0 .177.03.236.089.178.088.237.325.237.71 0 .415-.118.681-.325.74-.148.03-.325.06-.473.06h-3.634c-.414 0-.68-.119-.739-.356-.029-.148-.059-.296-.059-.473v-5.092a.884.884 0 0 1 .178-.651.844.844 0 0 1 .65-.178H129.465c.089 0 .177.03.236.09.178.088.237.325.237.71 0 .414-.118.68-.325.74-.148.03-.325.059-.473.059h-2.807v.917h2.128c.088 0 .177.03.236.09.177.088.236.325.236.71 0 .414-.118.68-.354.74-.148.03-.325.059-.473.059h-1.802l.029 1.036Zm9.484-1.776 1.832 2.042c.177.148.266.355.325.592-.029.237-.177.415-.354.563a.914.914 0 0 1-.591.325.818.818 0 0 1-.562-.355l-1.743-2.013-1.743 2.013c-.207.237-.414.355-.561.355a.91.91 0 0 1-.591-.325c-.237-.207-.355-.415-.355-.563a.918.918 0 0 1 .325-.592l1.832-2.042-1.832-2.043a.925.925 0 0 1-.325-.562.818.818 0 0 1 .355-.562.91.91 0 0 1 .591-.326c.236.03.443.178.561.355l1.743 2.013 1.743-2.013c.207-.237.414-.355.562-.355.236.03.443.148.591.326.177.148.325.325.354.562a.914.914 0 0 1-.325.592l-1.832 2.013Zm4.225-3.345h5.082c.148 0 .296.03.443.06.089.029.148.118.178.206.029.119.059.267.059.385 0 .119 0 .267-.059.385-.03.089-.089.148-.148.207-.148.06-.296.089-.473.089h-1.743V39.634c0 .09-.03.148-.089.237a.457.457 0 0 1-.236.178c-.148.03-.295.059-.443.059-.148 0-.296 0-.443-.06a.46.46 0 0 1-.237-.177c-.029-.089-.059-.148-.088-.237 0-.118-.03-.207 0-.325V34.69h-1.773c-.148 0-.296-.03-.443-.06-.089-.029-.148-.118-.178-.206a1.768 1.768 0 0 1-.059-.385c0-.119 0-.267.059-.385.03-.089.089-.148.148-.207a.985.985 0 0 1 .443-.09Zm10.312 2.694h1.625c.325 0 .532.088.591.266.059.148.088.326.088.503v2.013a.727.727 0 0 1-.266.563c-.502.532-1.27.799-2.304.799a3.238 3.238 0 0 1-2.364-1.036c-.65-.651-1.034-1.57-1.004-2.487a3.16 3.16 0 0 1 1.034-2.427 3.492 3.492 0 0 1 2.422-.977c.739 0 1.448.267 2.039.71a.472.472 0 0 1 .236.415c-.029.178-.088.385-.206.533-.237.325-.444.473-.65.473a1.101 1.101 0 0 1-.562-.266 1.657 1.657 0 0 0-.916-.266c-.472 0-.916.177-1.241.503-.354.325-.561.799-.531 1.273 0 .503.177 1.006.561 1.361a1.68 1.68 0 0 0 1.241.563c.295 0 .62-.06.916-.178v-1.006h-.709c-.148 0-.266-.03-.414-.06-.089-.059-.148-.118-.148-.207-.029-.118-.029-.266-.029-.385 0-.118 0-.266.029-.384a.343.343 0 0 1 .148-.208c.118-.088.266-.118.414-.088Zm5.791 2.427H159.276c.089 0 .178.03.237.089.177.088.236.325.236.71 0 .415-.118.681-.325.74-.148.03-.325.06-.473.06h-3.634c-.413 0-.679-.119-.738-.356a2.274 2.274 0 0 1-.059-.473v-5.092a.88.88 0 0 1 .177-.651.845.845 0 0 1 .65-.178H159.276c.089 0 .178.03.237.09.177.088.236.325.236.71 0 .414-.118.68-.325.74-.148.03-.325.059-.473.059h-2.806v.917H158.272c.089 0 .177.03.236.09.178.088.237.325.237.71 0 .414-.119.68-.355.74-.148.03-.325.059-.473.059h-1.802l.03 1.036Zm9.691-4.825a.375.375 0 0 1 .265-.207c.148-.03.296-.06.444-.06.147 0 .295 0 .413.06.089.03.178.059.237.118.059.06.088.119.118.207.029.148.059.296.059.474v5.417c-.03.089-.059.178-.089.237-.088.177-.325.237-.709.237-.177 0-.325 0-.502-.06a.457.457 0 0 1-.236-.177c-1.389-1.836-2.275-3.05-2.719-3.612v3.345a2.051 2.051 0 0 1-.088.237c-.089.178-.325.237-.709.237-.384 0-.621-.089-.709-.237-.03-.089-.06-.148-.089-.237 0-.118-.03-.207 0-.325v-5.121c0-.178.029-.355.089-.503a.375.375 0 0 1 .265-.208c.148-.03.296-.059.444-.059.147 0 .295 0 .443.06.088.029.148.058.236.118.089.089.148.148.207.237 1.3 1.746 2.157 2.9 2.57 3.492v-3.108c-.029-.236 0-.414.06-.562Zm6.913 5.506c-.148-.148-.207-.326-.236-.533 0-.148.118-.355.384-.622a.587.587 0 0 1 .473-.207c.177 0 .413.148.709.474.118.118.236.207.354.296a.796.796 0 0 0 .443.148c.562 0 .857-.237.857-.71a.384.384 0 0 0-.236-.356 1.412 1.412 0 0 0-.591-.207 5.54 5.54 0 0 1-1.477-.533 1.705 1.705 0 0 1-.591-.622c-.177-.296-.237-.65-.237-1.006 0-.533.207-1.036.591-1.42a2.22 2.22 0 0 1 1.625-.593c.325 0 .68.03 1.005.148.236.06.443.148.62.296l.237.178a.913.913 0 0 1 .295.444 1.072 1.072 0 0 1-.207.503c-.206.296-.413.444-.65.444a1.297 1.297 0 0 1-.472-.178c-.03-.03-.06-.059-.119-.088-.059-.03-.088-.09-.147-.119a.971.971 0 0 0-.503-.118c-.177 0-.354.03-.502.148a.507.507 0 0 0-.207.385c0 .177.089.325.237.414.177.118.384.178.591.207.265.03.502.089.768.178.266.059.502.177.768.266.236.119.443.326.591.563.177.296.236.65.236 1.006 0 .355-.088.71-.236 1.036a1.811 1.811 0 0 1-.621.71 2.798 2.798 0 0 1-1.595.474c-.266 0-.561-.03-.827-.118a2.31 2.31 0 0 1-.621-.267 2.093 2.093 0 0 1-.679-.562l-.03-.06Zm9.248-2.457c.945.888 1.595 1.569 1.979 2.042a.879.879 0 0 1 .296.563c0 .148-.118.325-.355.562-.147.178-.384.267-.591.326-.147 0-.354-.119-.561-.385l-2.009-2.309v2.102c-.03.089-.059.177-.089.237-.088.177-.325.236-.709.236-.413 0-.679-.118-.738-.355a2.274 2.274 0 0 1-.059-.473v-5.417c0-.09.029-.178.088-.237.089-.178.325-.237.709-.237.414 0 .68.118.768.326.03.148.06.325.06.473v1.747c.827-.948 1.506-1.717 2.009-2.31.206-.236.413-.384.561-.384.236.03.443.148.591.326.236.207.354.384.354.562a1.001 1.001 0 0 1-.265.562c-.355.415-.916.977-1.655 1.688l-.384.355Zm4.107-2.516v-.326c0-.089.029-.177.088-.237.089-.177.325-.236.709-.236.414 0 .68.118.769.325.029.148.059.326.059.474v5.417c-.03.089-.059.177-.089.237-.089.177-.325.236-.709.236-.414 0-.68-.118-.739-.355-.029-.148-.059-.296-.059-.473v-5.062h-.029Zm5.111 4.558h2.482c.148 0 .295 0 .443.06.089.03.148.118.177.207.03.118.059.266.059.385 0 .118 0 .266-.059.384a.525.525 0 0 1-.147.208c-.148.059-.325.088-.473.088h-3.309c-.414 0-.68-.118-.739-.355-.029-.148-.059-.296-.059-.473v-5.417c0-.09.03-.178.089-.237.088-.178.325-.237.709-.237.413 0 .679.118.768.326.03.148.059.325.059.473v4.588Zm6.5 0h2.482c.148 0 .295 0 .443.06.089.03.148.118.177.207.03.118.059.266.059.385 0 .118 0 .266-.059.384a.525.525 0 0 1-.147.208c-.148.059-.325.088-.473.088h-3.309c-.414 0-.68-.118-.739-.355-.029-.148-.059-.296-.059-.473v-5.417c0-.09.03-.178.089-.237.088-.178.325-.237.709-.237.413 0 .679.118.768.326.03.148.059.325.059.473v4.588Zm4.993.415c-.148-.148-.207-.326-.236-.533 0-.148.118-.355.384-.622a.587.587 0 0 1 .473-.207c.177 0 .413.148.709.474.118.118.236.207.354.296a.8.8 0 0 0 .444.148c.561 0 .856-.237.856-.71a.384.384 0 0 0-.236-.356 1.412 1.412 0 0 0-.591-.207 5.598 5.598 0 0 1-1.477-.533 1.705 1.705 0 0 1-.591-.622c-.177-.296-.237-.65-.237-1.006 0-.533.207-1.036.591-1.42a2.22 2.22 0 0 1 1.625-.593c.325 0 .68.03 1.005.148.236.06.443.148.62.296l.237.178a.906.906 0 0 1 .295.444 1.062 1.062 0 0 1-.207.503c-.206.296-.413.444-.65.444a1.297 1.297 0 0 1-.472-.178c-.03-.03-.059-.059-.118-.088-.06-.03-.089-.09-.148-.119a.97.97 0 0 0-.502-.118c-.178 0-.355.03-.503.148a.507.507 0 0 0-.207.385c0 .177.089.325.237.414.177.118.384.178.591.207.266.03.502.089.768.178.266.059.502.177.768.266.236.119.443.326.591.563.177.296.236.65.236 1.006 0 .355-.088.71-.236 1.036a1.817 1.817 0 0 1-.62.71 2.803 2.803 0 0 1-1.596.474c-.266 0-.561-.03-.827-.118a2.324 2.324 0 0 1-.621-.267 2.093 2.093 0 0 1-.679-.562l-.03-.06ZM70.46 14.638c.266.089.503.237.71.444.206.296.295.68.265 1.036a4.119 4.119 0 0 1-.413 1.569c-.207.503-.68.829-1.212.858a1.72 1.72 0 0 1-.768-.177 2.711 2.711 0 0 0-.975-.178c-.414 0-.798.148-1.123.414a1.29 1.29 0 0 0-.532 1.036v4.677c0 .267 0 .504-.029.77-.03.207-.118.414-.207.592-.236.385-.798.592-1.743.592-.71 0-1.211-.118-1.536-.385-.266-.266-.414-.592-.384-.947v-8.495c0-.267 0-.504.03-.77.029-.207.088-.385.176-.563.207-.414.798-.591 1.744-.591.886 0 1.447.177 1.654.503.148.207.236.473.236.74.09-.148.207-.267.325-.385a3.57 3.57 0 0 1 .887-.592c.354-.237.768-.355 1.211-.385.296 0 .591.03.886.06.266.029.532.088.798.177Zm2.068 1.835c0-.266 0-.503.03-.77.03-.207.089-.414.177-.591.207-.385.798-.592 1.743-.592.71 0 1.212.118 1.507.384.266.237.414.592.414.947 0 .148.03.356.03.652v7.814c0 .267 0 .504-.03.77-.03.207-.118.414-.207.592-.207.385-.768.592-1.714.592-.945 0-1.506-.207-1.713-.592a1.971 1.971 0 0 1-.177-.592c-.03-.266-.03-.533-.03-.77l-.03-7.844Zm3.634-4.144a.832.832 0 0 1-.59.444 4.668 4.668 0 0 1-1.123.148c-.384 0-.768-.03-1.123-.148a.87.87 0 0 1-.59-.474 2.014 2.014 0 0 1-.208-.592v-.77c0-.266 0-.502.03-.769.03-.207.089-.385.177-.562.207-.415.798-.592 1.743-.592.946 0 1.507.207 1.684.592.119.177.178.385.207.592.03.266.03.503.03.77 0 .266 0 .503-.03.769a1.42 1.42 0 0 1-.207.592ZM85.5 24.761c-.561.77-1.477 1.125-2.689 1.125-1.24 0-2.393-.562-3.457-1.717a5.707 5.707 0 0 1-1.625-3.966c0-1.48.562-2.93 1.625-3.996 1.094-1.155 2.275-1.717 3.575-1.717.473 0 .946.089 1.39.266.324.119.59.296.856.503.148.119.266.267.354.444.03-.355.178-.71.444-.947a2.153 2.153 0 0 1 1.27-.325c.414-.03.857.03 1.27.148.237.059.444.236.562.444.088.177.177.355.207.562.03.266.03.503.03.77v9.235a5.268 5.268 0 0 1-1.774 4.144 5.905 5.905 0 0 1-4.018 1.57 6.771 6.771 0 0 1-3.22-.83c-1.034-.562-1.537-1.036-1.537-1.48 0-.592.237-1.154.68-1.539.207-.237.414-.444.65-.651a.884.884 0 0 1 .532-.178c.236 0 .473.119.65.267.65.532 1.477.828 2.304.828.532 0 1.064-.236 1.39-.68a2.43 2.43 0 0 0 .53-1.599v-.68Zm-3.96-4.528c0 .503.208.947.562 1.302.355.385.857.592 1.389.592.502 0 1.004-.207 1.359-.592.325-.355.532-.8.532-1.302 0-.474-.178-.948-.503-1.303-.325-.414-.856-.622-1.388-.622-.532-.03-1.034.208-1.389.592-.384.356-.561.83-.561 1.333Zm15.896-5.684a4.69 4.69 0 0 1 3.693 1.687c1.005 1.155 1.507 2.635 1.478 4.145v3.907c0 .266 0 .503-.03.77a1.988 1.988 0 0 1-.207.591c-.206.385-.768.592-1.713.592-.916 0-1.478-.207-1.684-.591a1.42 1.42 0 0 1-.207-.593c-.03-.266-.03-.532-.03-.799v-3.907a1.917 1.917 0 0 0-.502-1.421 1.688 1.688 0 0 0-1.3-.503c-.502 0-1.005.148-1.389.473-.354.267-.62.652-.68 1.096v4.321c0 .267 0 .504-.029.77a2.01 2.01 0 0 1-.207.592c-.206.385-.768.592-1.713.592-.946 0-1.507-.207-1.714-.592a1.966 1.966 0 0 1-.177-.592c-.03-.266-.03-.533-.03-.77v-13.32c0-.267 0-.503.03-.77.03-.207.088-.385.177-.562.207-.415.798-.592 1.743-.592.946 0 1.507.207 1.684.592.119.178.178.385.207.592.03.266.03.503.03.77v4.913c.709-.947 1.566-1.39 2.57-1.39Zm13.65 3.907-1.447-.088v3.078c-.03.296.029.592.177.858a.803.803 0 0 0 .709.267c.266 0 .532 0 .798.03.206.03.413.088.591.207.354.207.502.68.502 1.48 0 .947-.207 1.51-.621 1.717a1.955 1.955 0 0 1-.591.177c-.236.03-.502.03-.738.03-1.537 0-2.718-.355-3.516-1.036-.798-.71-1.211-1.895-1.211-3.552v-3.256c-.296.059-.621.059-.916.059a.994.994 0 0 1-.798-.385c-.207-.266-.325-.68-.325-1.303-.03-.444.029-.888.118-1.332.059-.236.148-.414.325-.591.266-.208.561-.296.886-.296l.739.088V12.3c0-.266 0-.503.03-.77.029-.177.118-.384.206-.532.207-.385.769-.563 1.714-.563 1.005 0 1.596.267 1.802.83.089.384.119.74.119 1.124v2.25c.65-.06 1.152-.089 1.477-.089.266 0 .502 0 .768.03a2 2 0 0 1 .591.207c.384.207.591.77.591 1.717 0 .947-.207 1.51-.591 1.717a1.955 1.955 0 0 1-.591.177c-.295.03-.561.06-.798.06ZM51.022 15.378h3.339c.295 0 .532-.178.68-.415a1.4 1.4 0 0 0 .295-.888c0-.296-.118-.592-.295-.799a1.025 1.025 0 0 0-.68-.355h-3.339v2.457Zm0 2.99v5.268h3.634c.296 0 .591-.059.887-.207.266-.148.532-.325.709-.562a2.53 2.53 0 0 0 .473-.83c.118-.325.177-.65.177-1.005a3.035 3.035 0 0 0-.65-1.865 2.702 2.702 0 0 0-.71-.592 1.782 1.782 0 0 0-.886-.208h-3.634Zm-4.047-6.72c0-.563.206-1.066.59-1.45a2.006 2.006 0 0 1 1.448-.593h5.703c.59 0 1.152.119 1.713.356a5.172 5.172 0 0 1 1.418.947c.414.414.739.888.946 1.42a4.5 4.5 0 0 1 .354 1.747c0 .415-.059.83-.177 1.244a5.34 5.34 0 0 1-.473 1.124 6.541 6.541 0 0 1 1.655 2.043c.413.829.62 1.746.62 2.664 0 .77-.147 1.569-.443 2.28a6.05 6.05 0 0 1-1.24 1.864 5.911 5.911 0 0 1-1.833 1.243 5.872 5.872 0 0 1-2.245.474h-6.027c-1.093-.03-2.01-.888-2.01-2.013v-13.35ZM125.359 21.742l.414-.296a2.405 2.405 0 0 1 1.063-.444c.473 0 .946.414 1.478 1.243.265.355.443.8.502 1.243 0 .296-.089.563-.296.77a3.278 3.278 0 0 1-.709.562c-.266.178-.532.326-.768.474a8.403 8.403 0 0 1-1.507.592 6.898 6.898 0 0 1-2.186.355 8.545 8.545 0 0 1-2.127-.266 8.61 8.61 0 0 1-2.216-.948 9.9 9.9 0 0 1-2.068-1.598 7.948 7.948 0 0 1-1.507-2.427c-.414-1.036-.591-2.131-.591-3.227 0-1.065.177-2.16.591-3.167a6.967 6.967 0 0 1 1.477-2.338 7.55 7.55 0 0 1 2.068-1.54 9.082 9.082 0 0 1 4.373-1.213c.709 0 1.448.118 2.127.325a7.751 7.751 0 0 1 1.625.651l.532.326c.266.178.473.296.62.414.355.237.562.622.591 1.066a2.156 2.156 0 0 1-.472 1.243c-.591.8-1.094 1.214-1.566 1.214a2.281 2.281 0 0 1-1.123-.503 3.926 3.926 0 0 0-2.482-.77 4.86 4.86 0 0 0-2.836 1.007 3.713 3.713 0 0 0-1.123 1.39 4.763 4.763 0 0 0-.443 2.014c0 .71.148 1.39.443 2.013.266.562.65 1.036 1.123 1.39.827.622 1.802.978 2.836.978.443 0 .887-.06 1.3-.178.296-.06.591-.178.857-.355ZM140.516 10.287a.937.937 0 0 1 .591-.474 4.382 4.382 0 0 1 1.063-.148c.355 0 .68.03 1.034.118.207.06.414.148.591.267.148.118.237.266.325.444.089.385.118.77.118 1.154v12.373c0 .267 0 .504-.029.77-.03.207-.118.415-.207.592-.207.415-.798.592-1.743.592-1.034 0-1.655-.266-1.832-.829a3.88 3.88 0 0 1-.148-1.154v-4.5h-5.909v4.56c0 .265 0 .502-.029.769-.03.207-.119.414-.207.592-.207.414-.798.592-1.743.592-1.034 0-1.655-.267-1.832-.829a3.88 3.88 0 0 1-.148-1.154V11.647c0-.266 0-.503.03-.77.029-.207.118-.414.207-.591.206-.415.797-.592 1.743-.592 1.034 0 1.654.266 1.861.829.089.384.118.77.118 1.154v4.558h5.909v-4.588c0-.266 0-.503.03-.77.029-.207.089-.414.207-.591ZM155.495 10.85l5.998 12.432c.207.355.325.74.384 1.124 0 .533-.443 1.007-1.3 1.45-.354.208-.768.326-1.182.386-.266 0-.502-.06-.709-.208-.177-.118-.295-.266-.413-.414-.089-.148-.207-.385-.355-.68l-1.152-2.399h-6.175l-1.152 2.398a9.39 9.39 0 0 1-.355.651c-.118.148-.236.296-.414.415a1.006 1.006 0 0 1-.709.207 2.792 2.792 0 0 1-1.182-.385c-.856-.414-1.3-.888-1.3-1.42.06-.415.178-.8.385-1.125l5.997-12.463c.178-.355.414-.621.739-.828a1.954 1.954 0 0 1 1.064-.326c.827 0 1.536.474 1.831 1.184Zm-1.802 5.357-1.477 3.049h2.954l-1.477-3.05ZM180.432 10.316c.118.178.177.385.206.592.03.266.03.533.03.77V24.05c0 1.036-.296 1.628-.857 1.806a4.383 4.383 0 0 1-1.064.148c-.354 0-.679-.03-1.034-.119a2.152 2.152 0 0 1-.591-.266.98.98 0 0 1-.325-.444 5.144 5.144 0 0 1-.118-1.155v-7.46a42.63 42.63 0 0 0-1.625 2.191c-.709 1.007-1.152 1.628-1.359 1.895-.207.266-.325.414-.413.533a3.697 3.697 0 0 1-.532.414 1.757 1.757 0 0 1-.946.266 2.01 2.01 0 0 1-.916-.236 2.234 2.234 0 0 1-.591-.444l-.177-.237c-.295-.385-.886-1.155-1.773-2.368a184.254 184.254 0 0 1-1.418-1.954v7.519c0 .266 0 .503-.029.77-.03.206-.118.384-.207.562-.236.414-.798.592-1.743.592-.916 0-1.478-.207-1.684-.592a1.402 1.402 0 0 1-.207-.592c-.03-.267-.03-.533-.03-.8V11.648c0-.266 0-.503.03-.77.029-.207.118-.414.207-.592.236-.384.797-.592 1.743-.592.354 0 .709.03 1.034.148.207.06.414.148.561.296l.148.148 5.052 6.631c2.512-3.345 4.196-5.565 5.053-6.63.265-.415.856-.593 1.802-.593.975 0 1.566.208 1.773.622ZM194.495 12.98c.384.829.591 1.717.591 2.634 0 .918-.177 1.806-.591 2.605a5.383 5.383 0 0 1-1.477 1.865 6.199 6.199 0 0 1-3.841 1.421H186.4v2.516c0 .267 0 .503-.03.77-.03.207-.118.414-.207.592-.207.414-.798.592-1.743.592-1.034 0-1.655-.267-1.832-.829a3.88 3.88 0 0 1-.148-1.154V11.648c0-.266 0-.503.03-.77.03-.207.118-.414.207-.592.207-.414.798-.592 1.743-.592h4.757c1.3 0 2.57.474 3.811 1.421.65.503 1.182 1.125 1.507 1.865Zm-5.289 4.588c.473 0 .946-.177 1.3-.503a1.78 1.78 0 0 0 .65-1.48 1.78 1.78 0 0 0-.65-1.48 2.066 2.066 0 0 0-1.329-.503H186.4v3.937h2.806v.03ZM196.711 23.726a2.31 2.31 0 0 1-.591-1.273c0-.385.325-.888.946-1.51a1.632 1.632 0 0 1 1.181-.533c.414 0 1.005.385 1.744 1.125.265.296.561.533.886.71.325.208.679.326 1.064.356 1.388 0 2.068-.563 2.068-1.687-.03-.356-.237-.71-.562-.859-.443-.266-.916-.414-1.418-.503a12.912 12.912 0 0 1-1.832-.503c-.62-.207-1.241-.503-1.831-.8a3.794 3.794 0 0 1-1.419-1.48 4.966 4.966 0 0 1-.561-2.427c0-1.302.532-2.546 1.448-3.434.975-.976 2.304-1.45 3.959-1.45.827 0 1.654.118 2.423.355a4.856 4.856 0 0 1 1.536.71l.561.415c.473.444.68.8.68 1.095-.059.444-.237.888-.532 1.214-.502.74-1.034 1.125-1.566 1.125a2.297 2.297 0 0 1-1.152-.444c-.089-.06-.177-.148-.266-.237a3.05 3.05 0 0 0-.355-.296 2.335 2.335 0 0 0-1.181-.296c-.414-.03-.857.118-1.212.355a1.048 1.048 0 0 0-.473.947c0 .415.207.8.562 1.007a3.55 3.55 0 0 0 1.418.503c.62.089 1.241.237 1.861.414.621.178 1.241.415 1.862.681.591.296 1.093.8 1.418 1.392.414.74.591 1.598.561 2.427a5.043 5.043 0 0 1-.591 2.546 4.663 4.663 0 0 1-1.506 1.716A6.84 6.84 0 0 1 202 26.271c-.68 0-1.33-.088-1.98-.266-.532-.118-1.034-.355-1.507-.622-.65-.355-1.182-.828-1.654-1.39l-.148-.267Z"/></g><defs><clipPath id="clip0_1193_1325"><path fill="#fff" d="M0 0h208v46H0z"/></clipPath></defs></svg>