<svg version="1.1" id="Layer_1" xmlns="http://www.w3.org/2000/svg" x="0" y="0" viewBox="0 0 200 81" xml:space="preserve"><style>.st1{fill:#4d4d4f}.st2{fill:#fff}.st3{fill:#ce1141}</style><path fill="#b1b3b5" d="M198.224 1.358l-61.592-.011H75.18L73.475 6.3l-5.05-4.953H41.564L20.989 13.586l-9.358 27.175 3.737 3.163H9.949L2.224 66.356l13.685 12.752h27.64l6.048-3.459-1.191 3.459h61.451l1.724-5.005 6.519 5.005h24.032l21.845-11.944 19.701-57.219h11.654z"/><path class="st1" d="M189.704 3.389l-.252.732h-1.415l-1.271 3.692h-.878l1.271-3.692h-1.416l.253-.732h3.708zm3.259 4.423l.733-2.602c.102-.342.247-.764.393-1.236h-.048c-.248.391-.557.911-.827 1.318l-1.643 2.455h-.911l.071-2.521c.036-.341.085-.862.122-1.252h-.049c-.14.407-.302.83-.459 1.236l-1.058 2.602h-.846l1.849-4.424h1.317l.02 2.163c-.02.341-.051.667-.094 1.122h.017c.253-.406.48-.781.688-1.106l1.516-2.179h1.268l-1.181 4.424h-.878zM134.086 3.163h-57.61l-2.22 6.447-6.573-6.447h-25.62L22.489 14.806l-8.736 25.371 6.571 5.563h-9.08L4.326 65.832l12.298 11.46h26.442l9.819-5.616-1.934 5.616h57.611l2.123-6.166 8.031 6.166h22.951l20.821-11.384 21.605-62.745z"/><path class="st2" d="M130.344 5.946H78.303l-3.155 9.161-9.335-9.161H42.031L24.793 16.2l-7.738 22.474 11.636 9.852H13.069L7.607 64.39l10.859 10.119h24.668l14.396-8.234-2.835 8.234h52.041l2.868-8.33 10.85 8.33h21.319l18.442-10.082 20.137-58.481h-50.008zM57.507 31.929h11.849l-2.726 7.917-9.123-7.917z"/><path class="st3" d="M69.027 29.186H48.48l2.938-8.533h-4.274L42.782 33.32l12.404.88 10.241 8.886-6.847 19.881-15.378 8.797H20.279l-9.44-8.797 4.029-11.701h21.735L33.664 59.8h4.274l4.483-13.021-11.721-.791-10.393-8.796 6.755-19.619 14.935-8.885H63.97l9.055 8.885-3.998 11.613zM137.925 59.801h-4.394L151.13 8.689h-21.735l-18.689 54.279 11.46 8.796h19.717l16.093-8.796 18.69-54.279h-21.142zM104.939 71.764H83.796l8.936-25.95h-4.277l-8.935 25.95H58.382L80.1 8.689h21.139l-8.663 25.16h4.277l8.663-25.16h21.142l-21.719 63.075z"/><path class="st2" d="M51.722 26.775h1.921l2.276-6.611h-1.922zM17.708 55.598h14.993l.662-1.92H16.448l-2.768 8.04 1.453 1.355zM53.568 36.563l-12.095-.86-.615 1.789 15.073 1.121zM40.78 64.132l6.09-17.687-1.878-.126-5.472 15.892h-7.174l-.662 1.921zM30.317 20.703l12.914-7.682h21.078L62.35 11.1H41.971l-12.914 7.682-5.891 17.107 1.487 1.26z"/><g><path class="st2" d="M132.212 62.211l-.662 1.921h9.215l17.599-51.111h14.399l.662-1.921h-16.321l-17.599 51.111zM132.236 13.021h14.991l.662-1.921h-16.912l-17.392 50.511 1.519 1.167z"/></g><g><path class="st2" d="M97.232 45.325h-1.921l-8.274 24.029h1.921zM91.258 36.259l-.662 1.921h9.097l8.663-25.159h14.399l.661-1.921h-16.32l-8.663 25.159zM82.94 13.021h14.397l.662-1.921H81.681l-20.06 58.254h1.922z"/></g></svg>